<?xml version="1.0" encoding="UTF-8"?>
<svg id="Layer_2" data-name="Layer 2" xmlns="http://www.w3.org/2000/svg" viewBox="0 0 423.06 72.73">
  <defs>
    <style>
      .cls-1 {
        fill: #231f20;
      }

      .cls-2 {
        fill: #191919;
      }
    </style>
  </defs>
  <g id="Layer_1-2" data-name="Layer 1">
    <g>
      <g>
        <polygon class="cls-2" points="1.37 1.37 421.69 1.37 421.69 5.36 423.06 5.36 423.06 0 0 0 0 5.36 1.37 5.36 1.37 1.37"/>
        <polygon class="cls-2" points="421.69 67.36 421.69 71.36 1.37 71.36 1.37 67.36 0 67.36 0 72.73 423.06 72.73 423.06 67.36 421.69 67.36"/>
      </g>
      <g>
        <path class="cls-1" d="M18.94,23.79c2.55,0,4.63,.5,6.25,1.5,1.62,1,2.43,2.78,2.43,5.32,0,1.09-.27,2.03-.8,2.84-.53,.8-1.22,1.48-2.06,2.02,1.33,.52,2.42,1.3,3.26,2.34,.84,1.04,1.26,2.37,1.26,4,0,2.5-.87,4.32-2.61,5.47-1.74,1.15-3.94,1.72-6.58,1.72H11.38V23.79h7.57Zm-.3,3h-3.71v7.75h3.45c1.63-.02,2.97-.32,4-.89,1.04-.57,1.56-1.57,1.56-3,0-1.56-.48-2.59-1.45-3.1s-2.25-.76-3.86-.76Zm1.67,10.64h-5.38v8.64h5.01c1.63,0,2.99-.32,4.08-.97,1.09-.64,1.63-1.72,1.63-3.23s-.49-2.66-1.47-3.37c-.98-.72-2.27-1.08-3.88-1.08Z"/>
        <path class="cls-1" d="M39.93,39.66c0,2.13,.57,3.8,1.71,5.01,1.14,1.21,2.63,1.82,4.49,1.82s3.44-.62,4.52-1.85c1.09-1.24,1.63-2.89,1.63-4.97v-15.87h3.6v16.21c0,2.69-.87,4.94-2.61,6.73-1.74,1.79-4.12,2.69-7.14,2.69s-5.4-.89-7.14-2.67c-1.74-1.78-2.61-4.03-2.61-6.75V23.79h3.56v15.87Z"/>
        <path class="cls-1" d="M83.19,26.61h-8.31v22.4h-3.6V26.61h-7.82v-2.82h19.25c.07,.47,.15,.94,.22,1.41s.16,.94,.26,1.41Z"/>
        <path class="cls-1" d="M109.08,26.61h-8.31v22.4h-3.6V26.61h-7.82v-2.82h19.25c.07,.47,.15,.94,.22,1.41s.16,.94,.26,1.41Z"/>
        <path class="cls-1" d="M116.05,49.01V23.79h14.2c.1,.47,.18,.93,.24,1.37,.06,.45,.14,.9,.24,1.37h-11.13v8.27h7.08c.07,.47,.15,.93,.22,1.39,.07,.46,.16,.91,.26,1.35h-7.57v8.68h11.98l.48,2.78h-16.02Z"/>
        <path class="cls-1" d="M154.17,49.01l-5.64-10.2c-.39,.02-.78,.05-1.17,.07-.38,.03-.77,.04-1.17,.04h-3.3v10.09h-3.56V23.79h7.23c2.67,0,4.93,.59,6.77,1.76,1.84,1.17,2.76,3.08,2.76,5.73-.03,1.66-.45,3.03-1.26,4.13s-1.87,1.92-3.15,2.47l6.34,11.13h-3.86Zm-7.64-22.21h-3.63v9.23h3.45c1.66,0,3.07-.34,4.25-1.02,1.18-.68,1.77-1.87,1.8-3.58,0-1.78-.54-3-1.61-3.65-1.07-.66-2.49-.98-4.25-.98Z"/>
        <path class="cls-1" d="M176.17,37.7h-7.16v11.31h-3.56V23.79h13.61l.52,2.74h-10.57v8.46h6.71l.45,2.71Z"/>
        <path class="cls-1" d="M202.82,49.01h-15.39V23.79h3.56v22.44h11.39l.44,2.78Z"/>
        <path class="cls-1" d="M212.47,49.01v-10.01l-8.57-14.69,3.67-.52,6.68,11.64,6.82-11.64h3.78l-8.79,15.17-.04,10.05h-3.56Z"/>
        <path class="cls-1" d="M255.22,40.93l-6.97-9.75v17.84h-3.56V23.79h2.19l8.86,12.46,8.42-12.46h2.23v25.22h-3.6V31.51l-6.27,9.23-1.3,.19Z"/>
        <path class="cls-1" d="M276.06,49.01V23.79h3.56v25.22h-3.56Z"/>
        <path class="cls-1" d="M304.14,49.01l-5.64-10.2c-.4,.02-.79,.05-1.17,.07-.38,.03-.77,.04-1.17,.04h-3.3v10.09h-3.56V23.79h7.23c2.67,0,4.93,.59,6.77,1.76,1.84,1.17,2.76,3.08,2.76,5.73-.03,1.66-.45,3.03-1.26,4.13s-1.87,1.92-3.15,2.47l6.34,11.13h-3.86Zm-7.64-22.21h-3.63v9.23h3.45c1.66,0,3.07-.34,4.25-1.02,1.17-.68,1.77-1.87,1.8-3.58,0-1.78-.54-3-1.61-3.65s-2.49-.98-4.25-.98Z"/>
        <path class="cls-1" d="M330.24,49.01l-5.64-10.2c-.4,.02-.79,.05-1.17,.07-.38,.03-.77,.04-1.17,.04h-3.3v10.09h-3.56V23.79h7.23c2.67,0,4.93,.59,6.77,1.76,1.84,1.17,2.76,3.08,2.76,5.73-.03,1.66-.45,3.03-1.26,4.13s-1.87,1.92-3.15,2.47l6.34,11.13h-3.86Zm-7.64-22.21h-3.63v9.23h3.45c1.66,0,3.07-.34,4.25-1.02,1.17-.68,1.77-1.87,1.8-3.58,0-1.78-.54-3-1.61-3.65s-2.49-.98-4.25-.98Z"/>
        <path class="cls-1" d="M339.81,36.51c0-3.78,.97-6.93,2.91-9.44,1.94-2.51,4.74-3.8,8.4-3.88,3.9,0,6.76,1.29,8.57,3.88,1.8,2.58,2.71,5.64,2.71,9.18s-.98,6.81-2.93,9.36c-1.95,2.56-4.77,3.86-8.46,3.91-3.88,0-6.72-1.28-8.51-3.86-1.79-2.57-2.69-5.63-2.69-9.16Zm3.71-.04c0,2.82,.6,5.19,1.8,7.12,1.2,1.93,3.08,2.89,5.66,2.89,2.35,0,4.21-.9,5.58-2.71,1.37-1.8,2.06-4.31,2.06-7.53,0-2.79-.59-5.15-1.78-7.08-1.19-1.93-3.07-2.89-5.64-2.89-2.3,0-4.15,.95-5.56,2.84-1.41,1.89-2.11,4.35-2.11,7.36Z"/>
        <path class="cls-1" d="M385.09,49.01l-5.64-10.2c-.39,.02-.78,.05-1.17,.07-.38,.03-.77,.04-1.17,.04h-3.3v10.09h-3.56V23.79h7.23c2.67,0,4.93,.59,6.77,1.76,1.84,1.17,2.76,3.08,2.76,5.73-.03,1.66-.45,3.03-1.26,4.13s-1.87,1.92-3.15,2.47l6.34,11.13h-3.86Zm-7.64-22.21h-3.63v9.23h3.45c1.66,0,3.07-.34,4.25-1.02,1.18-.68,1.77-1.87,1.8-3.58,0-1.78-.54-3-1.61-3.65-1.07-.66-2.49-.98-4.25-.98Z"/>
        <path class="cls-1" d="M396.33,44.82c.69,.35,1.62,.7,2.78,1.06,1.16,.36,2.31,.54,3.45,.54,1.8,0,3.18-.33,4.12-1s1.41-1.54,1.41-2.63c0-2.5-2.17-4.34-6.51-5.54-4.34-1.2-6.51-3.7-6.51-7.51,0-1.83,.74-3.38,2.21-4.64,1.47-1.26,3.49-1.89,6.06-1.89,1.26,0,2.48,.17,3.65,.52,1.17,.35,2.18,.73,3.02,1.15-.17,.47-.37,.94-.59,1.41-.22,.47-.42,.94-.59,1.41-.64-.32-1.38-.62-2.21-.91s-1.84-.43-3.02-.43c-1.41,0-2.59,.27-3.54,.82-.95,.54-1.43,1.37-1.43,2.48,0,2.55,2.18,4.44,6.53,5.67,4.35,1.24,6.53,3.7,6.53,7.38,0,1.98-.78,3.6-2.35,4.88-1.57,1.27-3.82,1.91-6.73,1.91-1.06,0-2.39-.2-3.97-.59-1.58-.4-2.62-.82-3.12-1.26,.12-.47,.25-.94,.39-1.41s.28-.94,.43-1.41Z"/>
      </g>
    </g>
  </g>
</svg>