<?xml version="1.0" encoding="UTF-8"?>
<svg id="Layer_2" data-name="Layer 2" xmlns="http://www.w3.org/2000/svg" viewBox="0 0 120 91.05">
  <defs>
    <style>
      .cls-1 {
        fill: #222222;
      }
    </style>
  </defs>
  <g id="Layer_1-2" data-name="Layer 1">
    <path class="cls-1" d="M65.93,70.58c-9.55,10.84-21.69,16.83-35.67,19.41-6.47,1.2-13.01,1.66-19.48-.06-7.89-2.11-11.81-7.69-10.55-15.11,.86-5.06,3.47-9.2,7.34-12.5,8.73-7.42,18.48-8.85,30.38-4.73,3.43,1.19,6.67,4.5,9.99,6.04,.43,.2,.22,.85-.24,.76-.68-.13-1.44-.4-1.97-.57-5.21-1.69-10.32-5.57-15.66-6.46-9.41-1.56-17.6,1.32-23.45,9.24-1.22,1.65-2.1,3.71-2.59,5.72-1.43,5.78,1.2,10.81,6.63,13.35,5.05,2.36,10.4,2.38,15.77,1.94,12.31-1.02,23.8-4.34,33.56-12.33,1.33-1.09,2.59-2.27,4.15-3.64-4.09-1.03-4.36-1.5-3.3-4.95,6.09-19.84-1.37-42.41-17.9-53.87-6.65-4.61-14.07-7-22.21-6.95-4.65,.03-6.64,1.98-6.54,6.54,.14,6.35-1.41,12.41-2.92,18.49-.76,3.07-1.45,6.17-1.91,9.3-.8,5.53-.4,13.24,3.78,16.89,.35,.3,.7,.6,1.07,.91,.38,.32,.19,.94-.3,.99-3.28,.37-5.63-1.58-6.19-5.19-.6-3.91,.32-11.17,.78-15.1,.93-8.03,2.43-16,3.61-24.01,.22-1.52,.21-3.1,.05-4.63-.38-3.63,.51-5.7,4.03-6.55,3.01-.73,6.29-1.03,9.37-.7,12.68,1.33,22.24,8.02,29.23,18.38,8.65,12.82,12.25,26.91,9.61,42.35-.25,1.45-.68,2.86-1.1,4.64,1.9-.49,3.74-.62,4.86-2.25,9.63-14,17.56-28.86,22.11-45.32,.75-2.72,.92-5.71,.76-8.55-.3-5.35-4.8-7.6-9.05-4.39-2.33,1.76-4.35,4.27-5.75,6.85-3.93,7.23-6.02,15.14-7.52,23.2-.11,.61-.42,1.61-.88,1.61-2.8,0-.1-5.74,.88-8.36,2.48-6.64,3-13.75,6.34-20.03,1.88-3.53,4.39-6.58,7.75-8.78,2.58-1.69,5.37-3.05,8.49-1.45,3.21,1.64,3.72,4.81,3.91,7.93,.3,5.14-1,10.06-2.62,14.89-4.93,14.62-12.75,27.71-21.51,40.29-.38,.54-.73,1.1-.95,1.81,3.77-1.99,16.34-4.99,22.74-5.98,8.05-.96,15.89-.51,23.19,3.5,3.97,2.37,3.87,2.95,3.95,3.37,.11,.56-.29,1.1-.86,1.14-.43,.03-6.41-4.05-9.42-5.17-16.17-5.97-41.48,5.48-43.76,8.08Z"/>
  </g>
</svg>