<?xml version="1.0" encoding="UTF-8"?>
<svg id="Layer_2" data-name="Layer 2" xmlns="http://www.w3.org/2000/svg" viewBox="0 0 447.84 112.32">
  <defs>
    <style>
      .cls-1 {
        fill: #231f20;
      }

      .cls-2 {
        fill: #191919;
      }
    </style>
  </defs>
  <g id="Layer_1-2" data-name="Layer 1">
    <g>
      <g>
        <g>
          <polygon class="cls-2" points="26.15 1.37 446.47 1.37 446.47 5.36 447.84 5.36 447.84 0 24.78 0 24.78 5.36 26.15 5.36 26.15 1.37"/>
          <polygon class="cls-2" points="446.47 67.36 446.47 71.36 26.15 71.36 26.15 67.36 24.78 67.36 24.78 72.73 447.84 72.73 447.84 67.36 446.47 67.36"/>
        </g>
        <path class="cls-2" d="M31.92,48.24c-4.62,5.25-10.5,8.15-17.27,9.4-3.13,.58-6.3,.8-9.43-.03-3.82-1.02-5.72-3.73-5.11-7.31,.42-2.45,1.68-4.46,3.56-6.05,4.23-3.59,8.95-4.28,14.71-2.29,1.66,.58,3.23,2.18,4.84,2.92,.21,.1,.11,.41-.12,.37-.33-.06-.7-.19-.95-.27-2.52-.82-5-2.7-7.58-3.13-4.56-.76-8.52,.64-11.35,4.47-.59,.8-1.01,1.8-1.25,2.77-.69,2.8,.58,5.24,3.21,6.46,2.44,1.14,5.04,1.15,7.63,.94,5.96-.49,11.53-2.1,16.25-5.97,.65-.53,1.26-1.1,2.01-1.76-1.98-.5-2.11-.73-1.6-2.4,2.95-9.61-.67-20.54-8.67-26.09-3.22-2.23-6.81-3.39-10.75-3.36-2.25,.01-3.22,.96-3.17,3.17,.07,3.08-.68,6.01-1.41,8.95-.37,1.49-.7,2.99-.92,4.5-.39,2.68-.19,6.41,1.83,8.18,.17,.15,.34,.29,.52,.44s.09,.45-.15,.48c-1.59,.18-2.73-.76-3-2.51-.29-1.89,.16-5.41,.38-7.31,.45-3.89,1.17-7.75,1.75-11.63,.11-.73,.1-1.5,.03-2.24-.18-1.76,.25-2.76,1.95-3.17,1.46-.35,3.05-.5,4.54-.34,6.14,.65,10.77,3.88,14.15,8.9,4.19,6.21,5.93,13.03,4.65,20.5-.12,.7-.33,1.39-.53,2.25,.92-.24,1.81-.3,2.35-1.09,4.66-6.78,8.5-13.98,10.7-21.95,.36-1.32,.45-2.77,.37-4.14-.15-2.59-2.32-3.68-4.38-2.12-1.13,.85-2.11,2.07-2.79,3.32-1.9,3.5-2.91,7.33-3.64,11.23-.06,.3-.2,.78-.42,.78-1.36,0-.05-2.78,.43-4.05,1.2-3.22,1.45-6.66,3.07-9.7,.91-1.71,2.12-3.18,3.75-4.25,1.25-.82,2.6-1.48,4.11-.7,1.56,.79,1.8,2.33,1.89,3.84,.15,2.49-.48,4.87-1.27,7.21-2.39,7.08-6.17,13.42-10.41,19.51-.18,.26-.35,.53-.46,.88,1.82-.96,7.91-2.42,11.01-2.89,3.9-.46,7.7-.25,11.23,1.69,1.92,1.15,1.87,1.43,1.91,1.63,.05,.27-.14,.53-.42,.55-.21,.02-3.1-1.96-4.56-2.5-7.83-2.89-20.08,2.66-21.19,3.91Z"/>
      </g>
      <g>
        <path class="cls-1" d="M77.35,24.84c2.33,0,4.24,.46,5.73,1.38,1.48,.92,2.23,2.54,2.23,4.88,0,1-.24,1.87-.73,2.6-.49,.74-1.12,1.35-1.89,1.85,1.22,.48,2.22,1.19,2.99,2.14,.77,.95,1.16,2.18,1.16,3.67,0,2.29-.8,3.96-2.4,5.01-1.6,1.05-3.61,1.58-6.04,1.58h-7.99V24.84h6.94Zm-.27,2.75h-3.4v7.11h3.16c1.5-.02,2.72-.29,3.67-.82,.95-.52,1.43-1.44,1.43-2.75,0-1.43-.44-2.37-1.33-2.84s-2.06-.7-3.54-.7Zm1.53,9.76h-4.93v7.92h4.59c1.5,0,2.74-.29,3.74-.88,1-.59,1.5-1.58,1.5-2.96s-.45-2.44-1.34-3.09c-.9-.66-2.08-.99-3.55-.99Z"/>
        <path class="cls-1" d="M96.59,39.39c0,1.95,.52,3.48,1.56,4.59,1.04,1.11,2.41,1.67,4.11,1.67s3.15-.57,4.15-1.7c1-1.13,1.5-2.65,1.5-4.56v-14.55h3.3v14.86c0,2.47-.8,4.53-2.4,6.17-1.6,1.64-3.78,2.46-6.54,2.46s-4.95-.82-6.55-2.45c-1.6-1.63-2.4-3.69-2.4-6.19v-14.86h3.26v14.55Z"/>
        <path class="cls-1" d="M136.26,27.42h-7.62v20.54h-3.3V27.42h-7.17v-2.58h17.65c.07,.43,.14,.86,.2,1.29s.15,.86,.24,1.29Z"/>
        <path class="cls-1" d="M159.99,27.42h-7.62v20.54h-3.3V27.42h-7.17v-2.58h17.65c.07,.43,.14,.86,.2,1.29s.15,.86,.24,1.29Z"/>
        <path class="cls-1" d="M166.38,47.96V24.84h13.02c.09,.43,.16,.85,.22,1.26,.06,.41,.13,.83,.22,1.26h-10.2v7.58h6.49c.07,.43,.14,.86,.2,1.28,.07,.42,.15,.83,.24,1.24h-6.94v7.96h10.98l.44,2.55h-14.69Z"/>
        <path class="cls-1" d="M201.33,47.96l-5.17-9.35c-.36,.02-.72,.04-1.07,.07-.35,.02-.71,.03-1.07,.03h-3.03v9.25h-3.26V24.84h6.63c2.45,0,4.52,.54,6.21,1.62,1.69,1.08,2.53,2.83,2.53,5.25-.02,1.52-.41,2.78-1.16,3.79s-1.71,1.76-2.89,2.26l5.81,10.2h-3.54Zm-7-20.37h-3.33v8.47h3.16c1.52,0,2.82-.31,3.89-.93,1.08-.62,1.63-1.72,1.65-3.28,0-1.63-.49-2.75-1.48-3.35-.98-.6-2.28-.9-3.89-.9Z"/>
        <path class="cls-1" d="M221.5,37.59h-6.56v10.37h-3.26V24.84h12.48l.48,2.52h-9.69v7.75h6.15l.41,2.48Z"/>
        <path class="cls-1" d="M245.94,47.96h-14.11V24.84h3.26v20.57h10.44l.41,2.55Z"/>
        <path class="cls-1" d="M254.78,47.96v-9.18l-7.85-13.46,3.37-.48,6.12,10.68,6.26-10.68h3.47l-8.06,13.91-.03,9.21h-3.26Z"/>
        <path class="cls-1" d="M293.98,40.55l-6.39-8.94v16.35h-3.26V24.84h2.01l8.13,11.42,7.72-11.42h2.04v23.12h-3.3V31.91l-5.75,8.47-1.19,.17Z"/>
        <path class="cls-1" d="M313.09,47.96V24.84h3.26v23.12h-3.26Z"/>
        <path class="cls-1" d="M338.83,47.96l-5.17-9.35c-.36,.02-.72,.04-1.07,.07-.35,.02-.71,.03-1.07,.03h-3.03v9.25h-3.26V24.84h6.63c2.45,0,4.52,.54,6.21,1.62,1.69,1.08,2.53,2.83,2.53,5.25-.02,1.52-.41,2.78-1.16,3.79s-1.71,1.76-2.89,2.26l5.81,10.2h-3.54Zm-7-20.37h-3.33v8.47h3.16c1.52,0,2.82-.31,3.89-.93,1.08-.62,1.63-1.72,1.65-3.28,0-1.63-.49-2.75-1.48-3.35s-2.28-.9-3.89-.9Z"/>
        <path class="cls-1" d="M362.76,47.96l-5.17-9.35c-.36,.02-.72,.04-1.07,.07-.35,.02-.71,.03-1.07,.03h-3.03v9.25h-3.26V24.84h6.63c2.45,0,4.52,.54,6.21,1.62,1.69,1.08,2.53,2.83,2.53,5.25-.02,1.52-.41,2.78-1.16,3.79s-1.71,1.76-2.89,2.26l5.81,10.2h-3.54Zm-7-20.37h-3.33v8.47h3.16c1.52,0,2.82-.31,3.89-.93,1.08-.62,1.63-1.72,1.65-3.28,0-1.63-.49-2.75-1.48-3.35s-2.28-.9-3.89-.9Z"/>
        <path class="cls-1" d="M371.53,36.5c0-3.47,.89-6.35,2.67-8.65,1.78-2.3,4.35-3.48,7.7-3.55,3.58,0,6.2,1.18,7.85,3.55,1.65,2.37,2.48,5.17,2.48,8.42s-.9,6.24-2.69,8.58c-1.79,2.35-4.38,3.54-7.75,3.59-3.56,0-6.16-1.18-7.8-3.54-1.64-2.36-2.46-5.16-2.46-8.4Zm3.4-.03c0,2.58,.55,4.76,1.65,6.53,1.1,1.77,2.83,2.65,5.19,2.65,2.15,0,3.86-.83,5.12-2.48,1.26-1.65,1.89-3.96,1.89-6.9,0-2.56-.54-4.73-1.63-6.49-1.09-1.77-2.81-2.65-5.17-2.65-2.11,0-3.81,.87-5.1,2.6-1.29,1.73-1.94,3.98-1.94,6.75Z"/>
        <path class="cls-1" d="M413.05,47.96l-5.17-9.35c-.36,.02-.72,.04-1.07,.07-.35,.02-.71,.03-1.07,.03h-3.03v9.25h-3.26V24.84h6.63c2.45,0,4.52,.54,6.21,1.62,1.69,1.08,2.53,2.83,2.53,5.25-.02,1.52-.41,2.78-1.16,3.79s-1.71,1.76-2.89,2.26l5.81,10.2h-3.54Zm-7-20.37h-3.33v8.47h3.16c1.52,0,2.82-.31,3.89-.93,1.08-.62,1.63-1.72,1.65-3.28,0-1.63-.49-2.75-1.48-3.35-.98-.6-2.28-.9-3.89-.9Z"/>
        <path class="cls-1" d="M423.35,44.12c.63,.32,1.48,.64,2.55,.97,1.06,.33,2.12,.49,3.16,.49,1.65,0,2.91-.31,3.77-.92s1.29-1.42,1.29-2.41c0-2.29-1.99-3.98-5.97-5.08-3.98-1.1-5.97-3.39-5.97-6.88,0-1.68,.68-3.09,2.02-4.25,1.35-1.16,3.2-1.73,5.56-1.73,1.16,0,2.27,.16,3.35,.48,1.08,.32,2,.67,2.77,1.05-.16,.43-.34,.86-.54,1.29-.2,.43-.38,.86-.54,1.29-.59-.29-1.26-.57-2.02-.83s-1.68-.39-2.77-.39c-1.29,0-2.38,.25-3.25,.75-.87,.5-1.31,1.26-1.31,2.28,0,2.33,1.99,4.07,5.98,5.2,3.99,1.13,5.98,3.39,5.98,6.77,0,1.81-.72,3.3-2.16,4.47-1.44,1.17-3.5,1.75-6.17,1.75-.97,0-2.19-.18-3.64-.54-1.45-.36-2.4-.75-2.86-1.16,.11-.43,.23-.86,.36-1.29s.26-.86,.39-1.29Z"/>
      </g>
    </g>
    <g>
      <path class="cls-1" d="M40.81,111.98l-4.68-14.11-4.46,14.11h-1.34l-5.23-16.06,1.32-.26,4.56,14.45,4.56-14.45h1.3l4.63,14.45,4.49-14.45h1.32l-5.11,16.32h-1.34Z"/>
      <path class="cls-1" d="M54.75,111.98v-16.32h8.5l.12,1.01h-7.27v6.46h4.8l.12,1.01h-4.92v6.79h7.68l.14,1.06h-9.17Z"/>
      <path class="cls-1" d="M71.67,111.98v-16.32h3.43c1.71,0,3.12,.3,4.22,.9s1.66,1.72,1.66,3.35c0,.82-.2,1.5-.6,2.06-.4,.56-.93,1-1.58,1.32,.99,.3,1.8,.79,2.41,1.46,.62,.67,.92,1.58,.92,2.71,0,1.71-.6,2.89-1.81,3.54-1.21,.65-2.65,.97-4.33,.97h-4.32Zm3.6-15.22h-2.26v6.22h2.18c1.25-.02,2.3-.24,3.14-.67,.85-.43,1.27-1.22,1.27-2.38,0-1.25-.4-2.09-1.19-2.52-.79-.43-1.84-.65-3.16-.65Zm1.15,7.3h-3.41v6.84h3.14c1.28,0,2.37-.25,3.26-.74,.9-.5,1.34-1.38,1.34-2.64s-.4-2.1-1.19-2.64-1.84-.82-3.16-.82Z"/>
      <path class="cls-1" d="M100.64,111.98v-16.32h5.11c2.51,0,4.3,.79,5.36,2.36s1.6,3.48,1.6,5.7-.59,4.22-1.76,5.83c-1.18,1.62-2.96,2.42-5.34,2.42h-4.97Zm5.26-15.22h-3.91v14.14h3.67c1.71,0,3.1-.67,4.15-2,1.06-1.34,1.58-3.05,1.58-5.15,0-1.94-.45-3.58-1.36-4.94-.9-1.36-2.28-2.04-4.14-2.04Z"/>
      <path class="cls-1" d="M121.17,111.98v-16.32h8.5l.12,1.01h-7.27v6.46h4.8l.12,1.01h-4.92v6.79h7.68l.14,1.06h-9.17Z"/>
      <path class="cls-1" d="M142,111.19c1.38,0,2.43-.3,3.16-.9,.73-.6,1.09-1.32,1.09-2.15,0-1.81-1.46-3.17-4.39-4.08-2.93-.91-4.39-2.53-4.39-4.85,0-1.14,.45-2.08,1.36-2.82,.9-.74,2.12-1.12,3.66-1.12,.8,0,1.55,.1,2.26,.29s1.3,.41,1.78,.65l-.53,1.01c-.42-.19-.89-.38-1.42-.55-.53-.18-1.21-.26-2.04-.26-1.15,0-2.06,.27-2.74,.8-.67,.54-1.01,1.22-1.01,2.05,0,1.87,1.46,3.25,4.39,4.14,2.93,.89,4.39,2.48,4.39,4.79,0,1.2-.48,2.18-1.44,2.95-.96,.77-2.33,1.15-4.1,1.15-.69,0-1.52-.11-2.5-.32-.98-.22-1.6-.44-1.87-.68l.36-1.03c.42,.21,.98,.42,1.7,.62,.72,.21,1.48,.31,2.28,.31Z"/>
      <path class="cls-1" d="M155.53,111.98v-16.32h1.34v16.32h-1.34Z"/>
      <path class="cls-1" d="M172.36,103.77h4.85v7.46c-.45,.3-1.09,.56-1.93,.77-.84,.21-1.6,.31-2.29,.31-2.48,0-4.37-.8-5.68-2.41-1.3-1.61-1.96-3.6-1.96-5.99,0-2.53,.71-4.59,2.14-6.19,1.42-1.6,3.3-2.4,5.64-2.4,.5,0,1.17,.07,2.03,.22,.86,.14,1.51,.37,1.96,.67l-.46,.96c-.5-.21-.99-.38-1.48-.5-.49-.13-1.16-.19-2-.19-1.87,0-3.4,.68-4.58,2.04s-1.78,3.2-1.78,5.52c0,2.19,.56,3.92,1.68,5.2,1.12,1.27,2.61,1.91,4.46,1.91,.58,0,1.11-.06,1.6-.17,.49-.11,.93-.24,1.33-.38v-5.81h-3.67l.14-1.01Z"/>
      <path class="cls-1" d="M185.97,111.98v-16.32h.84l8.45,12.02,.82,1.42v-13.44h1.35v16.32h-.82l-8.95-12.91-.34-.7v13.61h-1.34Z"/>
      <path class="cls-1" d="M229.89,111.16l-.65,.82-2.16-1.94c-.56,.69-1.26,1.24-2.09,1.64-.83,.41-1.8,.61-2.9,.61-1.65,0-3.04-.45-4.18-1.36-1.14-.9-1.7-2.18-1.7-3.83,0-1.07,.25-2.04,.74-2.9,.5-.86,1.13-1.54,1.9-2.04-.26-.38-.46-.79-.6-1.22-.14-.43-.22-.92-.22-1.46,0-1.14,.38-2.12,1.13-2.95,.75-.83,1.78-1.25,3.07-1.25,.8,0,1.5,.1,2.09,.3,.59,.2,1.1,.41,1.54,.64l-.5,.98c-.4-.19-.81-.37-1.22-.54s-1.02-.25-1.8-.25c-.9,0-1.62,.3-2.18,.91-.56,.61-.84,1.29-.84,2.04,0,.86,.22,1.61,.67,2.24s1.09,1.34,1.92,2.12l4.9,4.58c.35-.64,.63-1.35,.84-2.12s.32-1.56,.34-2.34l.98,.36c-.02,.91-.13,1.79-.35,2.63-.22,.84-.52,1.6-.92,2.29l2.21,2.04Zm-7.78,.02c.86,0,1.64-.18,2.33-.54,.69-.36,1.27-.84,1.75-1.45l-5.54-5.09c-.21-.19-.4-.38-.59-.55s-.36-.35-.54-.53c-.64,.43-1.14,1-1.49,1.69-.35,.7-.53,1.48-.53,2.34,0,1.34,.48,2.37,1.44,3.07s2.02,1.06,3.17,1.06Z"/>
      <path class="cls-1" d="M247.96,111.98v-16.32h5.11c2.51,0,4.3,.79,5.36,2.36s1.6,3.48,1.6,5.7-.59,4.22-1.76,5.83-2.96,2.42-5.34,2.42h-4.97Zm5.26-15.22h-3.91v14.14h3.67c1.71,0,3.1-.67,4.15-2,1.06-1.34,1.58-3.05,1.58-5.15,0-1.94-.45-3.58-1.36-4.94s-2.28-2.04-4.14-2.04Z"/>
      <path class="cls-1" d="M268.49,111.98v-16.32h8.5l.12,1.01h-7.27v6.46h4.8l.12,1.01h-4.92v6.79h7.68l.14,1.06h-9.17Z"/>
      <path class="cls-1" d="M290.28,111.98l-6.22-16.06,1.32-.26,5.54,14.59,5.33-14.59h1.3l-5.93,16.32h-1.34Z"/>
      <path class="cls-1" d="M305.04,111.98v-16.32h8.5l.12,1.01h-7.27v6.46h4.8l.12,1.01h-4.92v6.79h7.68l.14,1.06h-9.17Z"/>
      <path class="cls-1" d="M330.99,111.98h-9.02v-16.32h1.34v15.26h7.56l.12,1.06Z"/>
      <path class="cls-1" d="M350.89,103.7c0,2.26-.59,4.26-1.78,6-1.18,1.74-2.93,2.62-5.23,2.62-2.43,0-4.19-.85-5.27-2.56s-1.62-3.66-1.62-5.87c0-2.38,.6-4.42,1.8-6.1,1.2-1.68,2.94-2.52,5.23-2.52,2.42,0,4.16,.85,5.24,2.54,1.08,1.7,1.62,3.66,1.62,5.88Zm-7.06,7.46c1.71,0,3.07-.71,4.08-2.14,1.01-1.42,1.51-3.19,1.51-5.3,0-1.95-.43-3.65-1.28-5.1-.86-1.45-2.22-2.17-4.09-2.17-1.71,0-3.07,.71-4.08,2.14s-1.51,3.18-1.51,5.28c0,1.95,.43,3.66,1.3,5.11s2.22,2.18,4.08,2.18Z"/>
      <path class="cls-1" d="M359.39,111.98v-16.32h4.08c1.7,0,3.1,.38,4.21,1.13,1.11,.75,1.67,2.02,1.67,3.79s-.6,3.04-1.8,3.85c-1.2,.81-2.65,1.21-4.34,1.21h-2.47v6.34h-1.34Zm4.25-15.19h-2.9v7.75h2.64c1.28,0,2.37-.32,3.26-.95,.9-.63,1.34-1.63,1.34-2.99s-.4-2.4-1.19-2.96-1.84-.85-3.16-.85Z"/>
      <path class="cls-1" d="M383.64,106.29l-5.02-7.61v13.3h-1.34v-16.32h.7l5.86,8.64,5.76-8.64h.82v16.32h-1.34v-13.42l-4.94,7.63-.48,.1Z"/>
      <path class="cls-1" d="M399.66,111.98v-16.32h8.5l.12,1.01h-7.27v6.46h4.8l.12,1.01h-4.92v6.79h7.68l.14,1.06h-9.17Z"/>
      <path class="cls-1" d="M416.58,111.98v-16.32h.84l8.45,12.02,.82,1.42v-13.44h1.34v16.32h-.82l-8.95-12.91-.34-.7v13.61h-1.34Z"/>
      <path class="cls-1" d="M447.12,96.72h-5.14v15.26h-1.34v-15.26h-5.11v-1.06h11.47l.12,1.06Z"/>
    </g>
  </g>
</svg>