<?xml version="1.0" encoding="UTF-8"?>
<svg id="Layer_2" data-name="Layer 2" xmlns="http://www.w3.org/2000/svg" viewBox="0 0 447.84 72.73">
  <defs>
    <style>
      .cls-1 {
        fill: #6d4ea0;
      }
    </style>
  </defs>
  <g id="Layer_1-2" data-name="Layer 1">
    <g>
      <g>
        <g>
          <polygon class="cls-1" points="26.15 1.37 446.47 1.37 446.47 5.36 447.84 5.36 447.84 0 24.78 0 24.78 5.36 26.15 5.36 26.15 1.37"/>
          <polygon class="cls-1" points="446.47 67.36 446.47 71.36 26.15 71.36 26.15 67.36 24.78 67.36 24.78 72.73 447.84 72.73 447.84 67.36 446.47 67.36"/>
        </g>
        <path class="cls-1" d="M31.92,48.24c-4.62,5.25-10.5,8.15-17.27,9.4-3.13,.58-6.3,.8-9.43-.03-3.82-1.02-5.72-3.73-5.11-7.31,.42-2.45,1.68-4.46,3.56-6.05,4.23-3.59,8.95-4.28,14.71-2.29,1.66,.58,3.23,2.18,4.84,2.92,.21,.1,.11,.41-.12,.37-.33-.06-.7-.19-.95-.27-2.52-.82-5-2.7-7.58-3.13-4.56-.76-8.52,.64-11.35,4.47-.59,.8-1.01,1.8-1.25,2.77-.69,2.8,.58,5.24,3.21,6.46,2.44,1.14,5.04,1.15,7.63,.94,5.96-.49,11.53-2.1,16.25-5.97,.65-.53,1.26-1.1,2.01-1.76-1.98-.5-2.11-.73-1.6-2.4,2.95-9.61-.67-20.54-8.67-26.09-3.22-2.23-6.81-3.39-10.75-3.36-2.25,.01-3.22,.96-3.17,3.17,.07,3.08-.68,6.01-1.41,8.95-.37,1.49-.7,2.99-.92,4.5-.39,2.68-.19,6.41,1.83,8.18,.17,.15,.34,.29,.52,.44s.09,.45-.15,.48c-1.59,.18-2.73-.76-3-2.51-.29-1.89,.16-5.41,.38-7.31,.45-3.89,1.17-7.75,1.75-11.63,.11-.73,.1-1.5,.03-2.24-.18-1.76,.25-2.76,1.95-3.17,1.46-.35,3.05-.5,4.54-.34,6.14,.65,10.77,3.88,14.15,8.9,4.19,6.21,5.93,13.03,4.65,20.5-.12,.7-.33,1.39-.53,2.25,.92-.24,1.81-.3,2.35-1.09,4.66-6.78,8.5-13.98,10.7-21.95,.36-1.32,.45-2.77,.37-4.14-.15-2.59-2.32-3.68-4.38-2.12-1.13,.85-2.11,2.07-2.79,3.32-1.9,3.5-2.91,7.33-3.64,11.23-.06,.3-.2,.78-.42,.78-1.36,0-.05-2.78,.43-4.05,1.2-3.22,1.45-6.66,3.07-9.7,.91-1.71,2.12-3.18,3.75-4.25,1.25-.82,2.6-1.48,4.11-.7,1.56,.79,1.8,2.33,1.89,3.84,.15,2.49-.48,4.87-1.27,7.21-2.39,7.08-6.17,13.42-10.41,19.51-.18,.26-.35,.53-.46,.88,1.82-.96,7.91-2.42,11.01-2.89,3.9-.46,7.7-.25,11.23,1.69,1.92,1.15,1.87,1.43,1.91,1.63,.05,.27-.14,.53-.42,.55-.21,.02-3.1-1.96-4.56-2.5-7.83-2.89-20.08,2.66-21.19,3.91Z"/>
      </g>
      <g>
        <path class="cls-1" d="M66.35,46.94V25.86h4.77c2.21,0,4.03,.39,5.46,1.16,1.43,.78,2.14,2.22,2.14,4.33,0,1.05-.26,1.94-.78,2.67s-1.2,1.29-2.05,1.71c1.28,.39,2.32,1.02,3.12,1.89,.79,.87,1.19,2.04,1.19,3.5,0,2.21-.78,3.74-2.34,4.57s-3.43,1.26-5.6,1.26h-5.92Zm4.84-19.44h-2.91v7.72h2.82c1.61-.02,2.96-.29,4.06-.82,1.1-.53,1.64-1.54,1.64-3.02,0-1.61-.51-2.66-1.53-3.15-1.02-.48-2.38-.73-4.08-.73Zm1.49,9.3h-4.4v8.52h4.06c1.65,0,3.06-.28,4.22-.85,1.16-.57,1.74-1.67,1.74-3.3s-.51-2.69-1.54-3.36c-1.02-.67-2.38-1.01-4.08-1.01Z"/>
        <path class="cls-1" d="M92.38,39.25c0,1.8,.52,3.32,1.55,4.56s2.44,1.86,4.22,1.86,3.26-.62,4.26-1.86,1.5-2.76,1.5-4.56v-13.39h1.95v13.67c0,2.25-.69,4.11-2.06,5.58-1.38,1.47-3.26,2.2-5.66,2.2-2.38-.02-4.25-.76-5.63-2.22-1.38-1.46-2.06-3.31-2.06-5.56v-13.67h1.92v13.39Z"/>
        <path class="cls-1" d="M130.59,27.38h-6.67v19.56h-1.95V27.38h-6.67v-1.52h15.13l.15,1.52Z"/>
        <path class="cls-1" d="M154.09,27.38h-6.67v19.56h-1.95V27.38h-6.67v-1.52h15.13l.15,1.52Z"/>
        <path class="cls-1" d="M163.73,46.94V25.86h11.16l.16,1.4h-9.39v8.18h6.2l.16,1.39h-6.36v8.56h9.92l.19,1.55h-12.03Z"/>
        <path class="cls-1" d="M198.25,46.94l-4.99-9.02c-.39,.04-.8,.08-1.21,.11-.41,.03-.83,.05-1.24,.05h-3.19v8.87h-1.92V25.86h5.46c2.19,0,4,.45,5.44,1.35s2.15,2.45,2.15,4.67c-.02,1.47-.38,2.65-1.08,3.53-.7,.89-1.6,1.55-2.7,1.98l5.46,9.55h-2.17Zm-7.04-19.44h-3.6v8.99h3.25c1.57,0,2.95-.32,4.12-.96,1.18-.64,1.78-1.84,1.8-3.6,0-1.8-.53-2.99-1.58-3.57-1.05-.58-2.39-.87-4-.87Z"/>
        <path class="cls-1" d="M218.66,36.95h-6.04v9.98h-1.92V25.86h10.82l.22,1.4h-9.11v8.31h5.86l.19,1.39Z"/>
        <path class="cls-1" d="M243.34,46.94h-11.81V25.86h1.92v19.53h9.73l.16,1.55Z"/>
        <path class="cls-1" d="M255.16,46.94l.03-8.56-7.29-12.18,2.02-.34,6.23,10.66,6.29-10.66h2.08l-7.38,12.31-.03,8.77h-1.95Z"/>
        <path class="cls-1" d="M295.46,39.81l-6.63-9.83v16.96h-1.92V25.86h1.08l7.72,11.1,7.6-11.1h1.27v21.08h-1.95V29.82l-6.54,9.86-.62,.12Z"/>
        <path class="cls-1" d="M316.6,46.94V25.86h1.92v21.08h-1.92Z"/>
        <path class="cls-1" d="M343.11,46.94l-4.99-9.02c-.39,.04-.8,.08-1.21,.11-.41,.03-.83,.05-1.24,.05h-3.19v8.87h-1.92V25.86h5.46c2.19,0,4,.45,5.44,1.35s2.15,2.45,2.15,4.67c-.02,1.47-.38,2.65-1.08,3.53-.7,.89-1.6,1.55-2.7,1.98l5.46,9.55h-2.17Zm-7.04-19.44h-3.6v8.99h3.25c1.57,0,2.95-.32,4.12-.96,1.18-.64,1.78-1.84,1.8-3.6,0-1.8-.53-2.99-1.58-3.57-1.05-.58-2.39-.87-4-.87Z"/>
        <path class="cls-1" d="M368.11,46.94l-4.99-9.02c-.39,.04-.8,.08-1.21,.11-.41,.03-.83,.05-1.24,.05h-3.19v8.87h-1.92V25.86h5.46c2.19,0,4,.45,5.44,1.35s2.15,2.45,2.15,4.67c-.02,1.47-.38,2.65-1.08,3.53-.7,.89-1.6,1.55-2.7,1.98l5.46,9.55h-2.17Zm-7.04-19.44h-3.6v8.99h3.25c1.57,0,2.95-.32,4.12-.96,1.18-.64,1.78-1.84,1.8-3.6,0-1.8-.53-2.99-1.58-3.57-1.05-.58-2.39-.87-4-.87Z"/>
        <path class="cls-1" d="M388.35,25.36c3.22,0,5.54,1.1,6.96,3.29,1.42,2.19,2.12,4.72,2.12,7.59s-.79,5.49-2.36,7.72c-1.57,2.23-3.88,3.37-6.91,3.41-3.22,0-5.54-1.1-6.94-3.3s-2.11-4.73-2.11-7.58c0-3.08,.78-5.69,2.34-7.83s3.86-3.24,6.9-3.3Zm-7.19,11.1c0,2.52,.56,4.69,1.67,6.49,1.12,1.81,2.87,2.71,5.27,2.71,2.21,0,3.97-.88,5.27-2.65,1.3-1.77,1.95-4.01,1.95-6.74,0-2.52-.55-4.68-1.66-6.48-1.11-1.8-2.87-2.7-5.29-2.7-2.21,0-3.97,.88-5.27,2.65-1.3,1.77-1.95,4-1.95,6.71Z"/>
        <path class="cls-1" d="M421.03,46.94l-4.99-9.02c-.39,.04-.8,.08-1.21,.11-.41,.03-.83,.05-1.24,.05h-3.19v8.87h-1.92V25.86h5.46c2.19,0,4,.45,5.44,1.35s2.15,2.45,2.15,4.67c-.02,1.47-.38,2.65-1.08,3.53-.7,.89-1.6,1.55-2.7,1.98l5.46,9.55h-2.17Zm-7.04-19.44h-3.6v8.99h3.25c1.57,0,2.95-.32,4.12-.96,1.18-.64,1.78-1.84,1.8-3.6,0-1.8-.53-2.99-1.58-3.57-1.05-.58-2.39-.87-4-.87Z"/>
        <path class="cls-1" d="M433.24,44.55c.54,.27,1.27,.54,2.2,.81,.93,.27,1.91,.4,2.95,.4,1.78,0,3.14-.36,4.08-1.08s1.41-1.62,1.41-2.7c0-2.42-1.91-4.14-5.74-5.16-3.82-1.02-5.72-3.13-5.7-6.31,.02-1.45,.62-2.67,1.81-3.66s2.77-1.49,4.76-1.49c1.03,0,2,.12,2.91,.37,.91,.25,1.67,.53,2.29,.84l-.68,1.46c-.54-.25-1.15-.49-1.83-.71-.68-.23-1.56-.34-2.64-.34-1.49,0-2.67,.32-3.53,.96-.87,.64-1.3,1.5-1.3,2.57,0,2.46,1.93,4.22,5.8,5.27,3.87,1.05,5.76,3.12,5.67,6.2-.02,1.55-.67,2.83-1.94,3.84-1.27,1.01-3.05,1.52-5.35,1.52-.89,0-1.96-.14-3.22-.42s-2.07-.57-2.42-.88l.47-1.49Z"/>
      </g>
    </g>
  </g>
</svg>