<?xml version="1.0" encoding="UTF-8"?>
<svg id="Layer_2" data-name="Layer 2" xmlns="http://www.w3.org/2000/svg" xmlns:xlink="http://www.w3.org/1999/xlink" viewBox="0 0 447.84 72.73">
  <defs>
    <style>
      .cls-1 {
        fill: #231f20;
      }

      .cls-2 {
        fill: #191919;
      }

      .cls-3 {
        filter: url(#drop-shadow-1);
      }
    </style>
    <filter id="drop-shadow-1" filterUnits="userSpaceOnUse">
      <feOffset dx="7" dy="5"/>
      <feGaussianBlur result="blur" stdDeviation="5"/>
      <feFlood flood-color="#000" flood-opacity=".25"/>
      <feComposite in2="blur" operator="in"/>
      <feComposite in="SourceGraphic"/>
    </filter>
  </defs>
  <g id="Layer_1-2" data-name="Layer 1">
    <g class="cls-3">
      <g>
        <g>
          <polygon class="cls-2" points="26.15 1.37 446.47 1.37 446.47 5.36 447.84 5.36 447.84 0 24.78 0 24.78 5.36 26.15 5.36 26.15 1.37"/>
          <polygon class="cls-2" points="446.47 67.36 446.47 71.36 26.15 71.36 26.15 67.36 24.78 67.36 24.78 72.73 447.84 72.73 447.84 67.36 446.47 67.36"/>
        </g>
        <path class="cls-2" d="M31.92,48.24c-4.62,5.25-10.5,8.15-17.27,9.4-3.13,.58-6.3,.8-9.43-.03-3.82-1.02-5.72-3.73-5.11-7.31,.42-2.45,1.68-4.46,3.56-6.05,4.23-3.59,8.95-4.28,14.71-2.29,1.66,.58,3.23,2.18,4.84,2.92,.21,.1,.11,.41-.12,.37-.33-.06-.7-.19-.95-.27-2.52-.82-5-2.7-7.58-3.13-4.56-.76-8.52,.64-11.35,4.47-.59,.8-1.01,1.8-1.25,2.77-.69,2.8,.58,5.24,3.21,6.46,2.44,1.14,5.04,1.15,7.63,.94,5.96-.49,11.53-2.1,16.25-5.97,.65-.53,1.26-1.1,2.01-1.76-1.98-.5-2.11-.73-1.6-2.4,2.95-9.61-.67-20.54-8.67-26.09-3.22-2.23-6.81-3.39-10.75-3.36-2.25,.01-3.22,.96-3.17,3.17,.07,3.08-.68,6.01-1.41,8.95-.37,1.49-.7,2.99-.92,4.5-.39,2.68-.19,6.41,1.83,8.18,.17,.15,.34,.29,.52,.44s.09,.45-.15,.48c-1.59,.18-2.73-.76-3-2.51-.29-1.89,.16-5.41,.38-7.31,.45-3.89,1.17-7.75,1.75-11.63,.11-.73,.1-1.5,.03-2.24-.18-1.76,.25-2.76,1.95-3.17,1.46-.35,3.05-.5,4.54-.34,6.14,.65,10.77,3.88,14.15,8.9,4.19,6.21,5.93,13.03,4.65,20.5-.12,.7-.33,1.39-.53,2.25,.92-.24,1.81-.3,2.35-1.09,4.66-6.78,8.5-13.98,10.7-21.95,.36-1.32,.45-2.77,.37-4.14-.15-2.59-2.32-3.68-4.38-2.12-1.13,.85-2.11,2.07-2.79,3.32-1.9,3.5-2.91,7.33-3.64,11.23-.06,.3-.2,.78-.42,.78-1.36,0-.05-2.78,.43-4.05,1.2-3.22,1.45-6.66,3.07-9.7,.91-1.71,2.12-3.18,3.75-4.25,1.25-.82,2.6-1.48,4.11-.7,1.56,.79,1.8,2.33,1.89,3.84,.15,2.49-.48,4.87-1.27,7.21-2.39,7.08-6.17,13.42-10.41,19.51-.18,.26-.35,.53-.46,.88,1.82-.96,7.91-2.42,11.01-2.89,3.9-.46,7.7-.25,11.23,1.69,1.92,1.15,1.87,1.43,1.91,1.63,.05,.27-.14,.53-.42,.55-.21,.02-3.1-1.96-4.56-2.5-7.83-2.89-20.08,2.66-21.19,3.91Z"/>
      </g>
      <g>
        <path class="cls-1" d="M77.35,24.84c2.33,0,4.24,.46,5.73,1.38,1.48,.92,2.23,2.54,2.23,4.88,0,1-.24,1.87-.73,2.6-.49,.74-1.12,1.35-1.89,1.85,1.22,.48,2.22,1.19,2.99,2.14,.77,.95,1.16,2.18,1.16,3.67,0,2.29-.8,3.96-2.4,5.01-1.6,1.05-3.61,1.58-6.04,1.58h-7.99V24.84h6.94Zm-.27,2.75h-3.4v7.11h3.16c1.5-.02,2.72-.29,3.67-.82,.95-.52,1.43-1.44,1.43-2.75,0-1.43-.44-2.37-1.33-2.84s-2.06-.7-3.54-.7Zm1.53,9.76h-4.93v7.92h4.59c1.5,0,2.74-.29,3.74-.88,1-.59,1.5-1.58,1.5-2.96s-.45-2.44-1.34-3.09c-.9-.66-2.08-.99-3.55-.99Z"/>
        <path class="cls-1" d="M96.59,39.39c0,1.95,.52,3.48,1.56,4.59,1.04,1.11,2.41,1.67,4.11,1.67s3.15-.57,4.15-1.7c1-1.13,1.5-2.65,1.5-4.56v-14.55h3.3v14.86c0,2.47-.8,4.53-2.4,6.17-1.6,1.64-3.78,2.46-6.54,2.46s-4.95-.82-6.55-2.45c-1.6-1.63-2.4-3.69-2.4-6.19v-14.86h3.26v14.55Z"/>
        <path class="cls-1" d="M136.26,27.42h-7.62v20.54h-3.3V27.42h-7.17v-2.58h17.65c.07,.43,.14,.86,.2,1.29s.15,.86,.24,1.29Z"/>
        <path class="cls-1" d="M159.99,27.42h-7.62v20.54h-3.3V27.42h-7.17v-2.58h17.65c.07,.43,.14,.86,.2,1.29s.15,.86,.24,1.29Z"/>
        <path class="cls-1" d="M166.38,47.96V24.84h13.02c.09,.43,.16,.85,.22,1.26,.06,.41,.13,.83,.22,1.26h-10.2v7.58h6.49c.07,.43,.14,.86,.2,1.28,.07,.42,.15,.83,.24,1.24h-6.94v7.96h10.98l.44,2.55h-14.69Z"/>
        <path class="cls-1" d="M201.33,47.96l-5.17-9.35c-.36,.02-.72,.04-1.07,.07-.35,.02-.71,.03-1.07,.03h-3.03v9.25h-3.26V24.84h6.63c2.45,0,4.52,.54,6.21,1.62,1.69,1.08,2.53,2.83,2.53,5.25-.02,1.52-.41,2.78-1.16,3.79s-1.71,1.76-2.89,2.26l5.81,10.2h-3.54Zm-7-20.37h-3.33v8.47h3.16c1.52,0,2.82-.31,3.89-.93,1.08-.62,1.63-1.72,1.65-3.28,0-1.63-.49-2.75-1.48-3.35-.98-.6-2.28-.9-3.89-.9Z"/>
        <path class="cls-1" d="M221.5,37.59h-6.56v10.37h-3.26V24.84h12.48l.48,2.52h-9.69v7.75h6.15l.41,2.48Z"/>
        <path class="cls-1" d="M245.94,47.96h-14.11V24.84h3.26v20.57h10.44l.41,2.55Z"/>
        <path class="cls-1" d="M254.78,47.96v-9.18l-7.85-13.46,3.37-.48,6.12,10.68,6.26-10.68h3.47l-8.06,13.91-.03,9.21h-3.26Z"/>
        <path class="cls-1" d="M293.98,40.55l-6.39-8.94v16.35h-3.26V24.84h2.01l8.13,11.42,7.72-11.42h2.04v23.12h-3.3V31.91l-5.75,8.47-1.19,.17Z"/>
        <path class="cls-1" d="M313.09,47.96V24.84h3.26v23.12h-3.26Z"/>
        <path class="cls-1" d="M338.83,47.96l-5.17-9.35c-.36,.02-.72,.04-1.07,.07-.35,.02-.71,.03-1.07,.03h-3.03v9.25h-3.26V24.84h6.63c2.45,0,4.52,.54,6.21,1.62,1.69,1.08,2.53,2.83,2.53,5.25-.02,1.52-.41,2.78-1.16,3.79s-1.71,1.76-2.89,2.26l5.81,10.2h-3.54Zm-7-20.37h-3.33v8.47h3.16c1.52,0,2.82-.31,3.89-.93,1.08-.62,1.63-1.72,1.65-3.28,0-1.63-.49-2.75-1.48-3.35s-2.28-.9-3.89-.9Z"/>
        <path class="cls-1" d="M362.76,47.96l-5.17-9.35c-.36,.02-.72,.04-1.07,.07-.35,.02-.71,.03-1.07,.03h-3.03v9.25h-3.26V24.84h6.63c2.45,0,4.52,.54,6.21,1.62,1.69,1.08,2.53,2.83,2.53,5.25-.02,1.52-.41,2.78-1.16,3.79s-1.71,1.76-2.89,2.26l5.81,10.2h-3.54Zm-7-20.37h-3.33v8.47h3.16c1.52,0,2.82-.31,3.89-.93,1.08-.62,1.63-1.72,1.65-3.28,0-1.63-.49-2.75-1.48-3.35s-2.28-.9-3.89-.9Z"/>
        <path class="cls-1" d="M371.53,36.5c0-3.47,.89-6.35,2.67-8.65,1.78-2.3,4.35-3.48,7.7-3.55,3.58,0,6.2,1.18,7.85,3.55,1.65,2.37,2.48,5.17,2.48,8.42s-.9,6.24-2.69,8.58c-1.79,2.35-4.38,3.54-7.75,3.59-3.56,0-6.16-1.18-7.8-3.54-1.64-2.36-2.46-5.16-2.46-8.4Zm3.4-.03c0,2.58,.55,4.76,1.65,6.53,1.1,1.77,2.83,2.65,5.19,2.65,2.15,0,3.86-.83,5.12-2.48,1.26-1.65,1.89-3.96,1.89-6.9,0-2.56-.54-4.73-1.63-6.49-1.09-1.77-2.81-2.65-5.17-2.65-2.11,0-3.81,.87-5.1,2.6-1.29,1.73-1.94,3.98-1.94,6.75Z"/>
        <path class="cls-1" d="M413.05,47.96l-5.17-9.35c-.36,.02-.72,.04-1.07,.07-.35,.02-.71,.03-1.07,.03h-3.03v9.25h-3.26V24.84h6.63c2.45,0,4.52,.54,6.21,1.62,1.69,1.08,2.53,2.83,2.53,5.25-.02,1.52-.41,2.78-1.16,3.79s-1.71,1.76-2.89,2.26l5.81,10.2h-3.54Zm-7-20.37h-3.33v8.47h3.16c1.52,0,2.82-.31,3.89-.93,1.08-.62,1.63-1.72,1.65-3.28,0-1.63-.49-2.75-1.48-3.35-.98-.6-2.28-.9-3.89-.9Z"/>
        <path class="cls-1" d="M423.35,44.12c.63,.32,1.48,.64,2.55,.97,1.06,.33,2.12,.49,3.16,.49,1.65,0,2.91-.31,3.77-.92s1.29-1.42,1.29-2.41c0-2.29-1.99-3.98-5.97-5.08-3.98-1.1-5.97-3.39-5.97-6.88,0-1.68,.68-3.09,2.02-4.25,1.35-1.16,3.2-1.73,5.56-1.73,1.16,0,2.27,.16,3.35,.48,1.08,.32,2,.67,2.77,1.05-.16,.43-.34,.86-.54,1.29-.2,.43-.38,.86-.54,1.29-.59-.29-1.26-.57-2.02-.83s-1.68-.39-2.77-.39c-1.29,0-2.38,.25-3.25,.75-.87,.5-1.31,1.26-1.31,2.28,0,2.33,1.99,4.07,5.98,5.2,3.99,1.13,5.98,3.39,5.98,6.77,0,1.81-.72,3.3-2.16,4.47-1.44,1.17-3.5,1.75-6.17,1.75-.97,0-2.19-.18-3.64-.54-1.45-.36-2.4-.75-2.86-1.16,.11-.43,.23-.86,.36-1.29s.26-.86,.39-1.29Z"/>
      </g>
    </g>
  </g>
</svg>