<?xml version="1.0" encoding="UTF-8"?>
<svg id="Layer_2" data-name="Layer 2" xmlns="http://www.w3.org/2000/svg" viewBox="0 0 310 310">
  <defs>
    <style>
      .cls-1 {
        fill: #fff;
      }

      .cls-2 {
        fill: #662f90;
      }

      .cls-3 {
        fill: #6d4ea0;
      }
    </style>
  </defs>
  <g id="Layer_1-2" data-name="Layer 1">
    <g>
      <rect class="cls-3" x="2.5" y="2.5" width="305" height="305"/>
      <path class="cls-2" d="M305,5V305H5V5H305m5-5H0V310H310V0h0Z"/>
    </g>
    <path class="cls-1" d="M167.36,207.19c-19.89,22.58-45.18,35.05-74.31,40.43-13.48,2.49-27.11,3.46-40.59-.13-16.45-4.39-24.6-16.03-21.98-31.47,1.79-10.54,7.22-19.18,15.3-26.04,18.19-15.45,38.5-18.44,63.29-9.86,7.15,2.48,13.91,9.38,20.81,12.58,.89,.41,.46,1.76-.5,1.58-1.41-.28-3-.82-4.09-1.18-10.85-3.52-21.49-11.61-32.62-13.46-19.61-3.25-36.66,2.75-48.85,19.25-2.54,3.44-4.37,7.73-5.4,11.91-2.98,12.04,2.5,22.53,13.81,27.81,10.52,4.91,21.67,4.97,32.85,4.04,25.64-2.12,49.59-9.04,69.91-25.69,2.78-2.28,5.4-4.73,8.64-7.58-8.53-2.14-9.08-3.13-6.87-10.32,12.69-41.33-2.86-88.36-37.29-112.24-13.86-9.61-29.32-14.58-46.26-14.48-9.68,.06-13.84,4.13-13.63,13.63,.3,13.23-2.94,25.85-6.08,38.52-1.58,6.4-3.03,12.86-3.98,19.38-1.67,11.53-.83,27.58,7.87,35.18,.72,.63,1.46,1.25,2.23,1.9,.79,.66,.4,1.95-.62,2.07-6.82,.77-11.74-3.28-12.89-10.81-1.25-8.15,.67-23.27,1.62-31.45,1.94-16.74,5.06-33.34,7.51-50.02,.47-3.16,.44-6.47,.11-9.65-.79-7.57,1.07-11.88,8.4-13.64,6.28-1.51,13.11-2.14,19.52-1.46,26.43,2.78,46.33,16.7,60.89,38.29,18.01,26.72,25.53,56.06,20.02,88.22-.52,3.01-1.41,5.96-2.3,9.68,3.95-1.03,7.79-1.29,10.13-4.69,20.06-29.18,36.57-60.13,46.06-94.43,1.57-5.67,1.92-11.9,1.59-17.8-.62-11.15-10-15.83-18.85-9.14-4.85,3.67-9.06,8.9-11.99,14.28-8.2,15.06-12.54,31.54-15.67,48.33-.24,1.28-.87,3.35-1.82,3.35-5.84,0-.2-11.96,1.83-17.41,5.17-13.84,6.25-28.64,13.21-41.72,3.91-7.36,9.14-13.7,16.15-18.29,5.38-3.52,11.18-6.35,17.69-3.03,6.69,3.41,7.76,10.02,8.14,16.53,.63,10.72-2.07,20.97-5.46,31.02-10.27,30.46-26.55,57.72-44.8,83.93-.78,1.13-1.53,2.28-1.98,3.78,7.85-4.14,34.05-10.4,47.38-12.45,16.78-2,33.11-1.06,48.31,7.29,8.27,4.94,8.06,6.15,8.23,7.02,.24,1.17-.61,2.29-1.8,2.38-.89,.07-13.36-8.45-19.63-10.77-33.68-12.44-86.41,11.42-91.17,16.83Z"/>
  </g>
</svg>