<?xml version="1.0" encoding="UTF-8"?>
<svg id="Layer_2" data-name="Layer 2" xmlns="http://www.w3.org/2000/svg" viewBox="0 0 228.59 277.35">
  <defs>
    <style>
      .cls-1 {
        fill: #181818;
        stroke-width: 0px;
      }
    </style>
  </defs>
  <g id="Layer_2-2" data-name="Layer 2">
    <path class="cls-1" d="m85.93,277.35c-9.56,0-19.88-3.52-29.04-9.9l-.18-.13c-9.66-7.4-14.22-17.96-18.63-28.16-1.67-3.86-3.25-7.52-5.08-10.97-3.73-4.92-3.3-10.22-2.96-14.51.23-2.86.43-5.33-.55-7.23l-.09-.18-.08-.19c-11.33-27.52-1.64-56.22,6.24-79.35.68-4.13-1.57-8.08-4.16-12.63-.6-1.06-1.2-2.11-1.76-3.16l-.08-.15c-1.63-3.32-1.88-6.66-2.11-9.61-.05-.69-.1-1.38-.18-2.07-1.06-5.91-3.7-11.2-7.05-17.48-1.08-2.07-2.15-4.1-3.24-6.14C9.26,60.89,1.25,45.81.01,28.58v-.18s-.01-.19-.01-.19C.04,10.28,10.92,0,29.85,0c15.82,0,34.66,7.09,45.55,13.71,50.85,26.63,109.55,79.27,136.59,122.5l.08.13.07.13c15.99,29.29,20.18,49.74,13.19,64.34-6.19,12.94-20.46,20.83-46.24,25.56-13.36,5.38-24.92,13.94-37.16,22.99-13.69,10.13-27.85,20.61-44.79,26.25-3.56,1.16-7.33,1.74-11.21,1.74h0Zm-19.7-22.84c5.9,4.32,11.92,6.42,18.41,6.42,15.52,0,31.25-11.91,46.47-23.44,6.54-4.95,12.72-9.63,18.82-13.32,10.83-9.41,23.09-12.5,33.93-15.22,11.62-2.92,20.85-5.24,26.38-14.01,3.14-12.58.22-27.48-8.68-44.32-8.13-15.39-19.38-28.98-27.17-37.89C140.31,77.14,72.6,17,34.53,17c-7.2,0-12.83,2.16-17.16,6.59-3.33,13.72,4.31,27.31,12.38,41.69,6.33,11.27,12.86,22.89,13.76,34.92,3.01-1.16,6.49-1.68,10.24-2.23,4.84-.72,10.86-1.61,17.99-4.04,7.38-2.52,14.24-3.74,20.97-3.74,2.27,0,4.55.15,6.77.43,21.66,3.14,69.83,18.95,81.13,36.75l8.53,13.44-14.68-6.15c-3.93-1.65-8.41-3.73-13.59-6.15-19.82-9.24-46.97-21.88-70.15-21.88-19.75,0-32.83,9.41-40.01,28.77l-.08.22-.1.21c-9,18.76-12.21,37.51-9.3,54.24l.02.1c.37,2.38,1.25,4.85,2.18,7.47,1.76,4.93,3.76,10.52,2.54,16.8l-.03.15c-.66,2.91-.05,4.24.63,5.16l.2.27.17.3c2.15,3.91,3.93,8.12,5.66,12.18,3.67,8.63,7.13,16.78,13.65,22.01Z"/>
  </g>
</svg>