<?xml version="1.0" encoding="UTF-8"?>
<svg id="Layer_2" data-name="Layer 2" xmlns="http://www.w3.org/2000/svg" viewBox="0 0 224.59 273.35">
  <defs>
    <style>
      .cls-1 {
        fill: #181818;
        stroke-width: 0px;
      }
    </style>
  </defs>
  <g id="Layer_2-2" data-name="Layer 2">
    <path class="cls-1" d="m83.93,273.35c-9.16,0-19.06-3.39-27.9-9.55l-.11-.08c-9.25-7.08-13.7-17.4-18.01-27.37-1.63-3.78-3.33-7.69-5.23-11.27-3.37-4.35-2.99-9.08-2.65-13.26.25-3.16.47-5.89-.76-8.31l-.06-.11-.05-.11c-11.06-26.89-1.45-55.26,6.34-78.09.89-4.9-1.67-9.38-4.37-14.12-.59-1.04-1.18-2.08-1.73-3.11l-.05-.09c-1.46-2.97-1.7-6.11-1.91-8.88-.06-.73-.11-1.47-.19-2.2-1.1-6.21-3.94-11.89-7.26-18.14-1.07-2.06-2.15-4.09-3.23-6.14C9.12,58.14,1.22,43.25,0,26.44v-.11s0-.11,0-.11C.04,9.31,9.93,0,27.85,0c15.46,0,33.91,6.96,44.56,13.45,50.59,26.48,108.99,78.83,135.88,121.81l.09.15c15.65,28.68,19.83,48.55,13.15,62.52-5.9,12.33-19.78,19.89-45,24.49-13.69,5.48-25.94,14.54-37.79,23.32-13.57,10.04-27.59,20.42-44.23,25.96-3.35,1.09-6.9,1.64-10.58,1.64h0Zm-20.91-19.25c6.26,4.6,12.68,6.83,19.63,6.83,16.19,0,32.2-12.12,47.68-23.84,6.55-4.96,12.73-9.64,18.79-13.29,10.5-9.19,22.57-12.22,33.23-14.9,11.7-2.94,21.82-5.48,27.75-15.16,5.75-22.26-6.11-49.86-36.24-84.35C139.58,73.56,71.28,13,32.53,13c-7.99,0-14.2,2.48-18.97,7.59-3.84,14.68,4.44,29.41,12.44,43.67,6.67,11.88,13.57,24.15,13.61,36.62.03.15.06.29.09.44,3.19-2.02,7.4-2.64,12.33-3.37,4.92-.73,11.04-1.63,18.34-4.12,7.17-2.45,13.82-3.63,20.33-3.63,2.19,0,4.38.14,6.51.42,22.14,3.21,69.17,19.25,79.7,35.84l5.12,8.07-8.81-3.69c-3.9-1.63-8.36-3.71-13.52-6.12-19.99-9.31-47.37-22.07-70.99-22.07-20.68,0-34.38,9.84-41.88,30.08l-.05.13-.06.12c-9.18,19.14-12.45,38.31-9.47,55.44.41,2.63,1.32,5.19,2.29,7.9,1.76,4.92,3.57,10,2.46,15.75-.67,2.99-.37,5.09.96,6.88l.12.17.1.18c2.1,3.83,3.86,7.98,5.57,12,3.77,8.88,7.34,17.27,14.27,22.81Z"/>
  </g>
</svg>