<?xml version="1.0" encoding="UTF-8"?>
<svg id="Layer_2" data-name="Layer 2" xmlns="http://www.w3.org/2000/svg" viewBox="0 0 218.6 267.35">
  <defs>
    <style>
      .cls-1 {
        fill: #181818;
        stroke-width: 0px;
      }
    </style>
  </defs>
  <g id="Layer_2-2" data-name="Layer 2">
    <path class="cls-1" d="m67.94,13.06C48.62,1.25.08-13.25,0,23.22c1.34,18.52,11.27,34.93,19.64,51.05,3.26,6.13,6.39,12.23,7.59,19.13.38,3.45.25,6.99,1.82,10.18,3.22,6.04,7.81,12.12,6.36,19.4-8.31,24.37-16.87,50.9-6.47,76.18,3.54,6.92-1.94,14.86,3.26,21.28,6.94,12.9,10.39,28.59,22.55,37.91,10.14,7.06,23.68,11.47,35.82,7.52,30.82-10.27,52.32-37.52,82.14-49.33,45.46-8.23,60.37-27.11,30.05-82.68C174.68,88.98,114.87,37.61,67.94,13.06Zm-32.46,104.59c-.02-.16-.05-.52,0,0h0Zm174.41,74.27c-12.28,20.72-40.59,12.37-62,31.31-26.22,15.68-57.82,53.7-89.7,30.25-10.96-8.72-14.12-23.86-20.65-35.75-2.08-2.8-2.23-5.96-1.5-9.24,1.53-7.89-3.59-14.93-4.76-22.56-3.4-19.54,1.22-39.54,9.72-57.26,23.14-62.44,99.28-16.64,130.37-3.62-9.77-15.39-55.26-31.24-77.55-34.48-8.66-1.13-17.19.25-25.48,3.08-17.57,5.99-28.18,3.07-32.58,9.67-1.03-1.62-1.88-3.32-2.15-5.23.1-26.7-33.99-53.23-25.76-82,35.08-39.59,139.26,61.12,165.22,88.25,16.7,19.11,45.42,55.51,36.82,87.56Z"/>
  </g>
</svg>