<?xml version="1.0" encoding="UTF-8"?>
<svg id="Layer_2" data-name="Layer 2" xmlns="http://www.w3.org/2000/svg" viewBox="0 0 238.57 287.35">
  <defs>
    <style>
      .cls-1 {
        fill: #181818;
        stroke-width: 0px;
      }
    </style>
  </defs>
  <g id="Layer_2-2" data-name="Layer 2">
    <path class="cls-1" d="m90.93,287.35c-10.57,0-21.9-3.84-31.9-10.8l-.19-.13-.18-.14c-10.69-8.19-15.73-19.86-20.18-30.15-1.58-3.64-3.07-7.1-4.74-10.29-4.6-6.33-4.06-13.06-3.7-17.58.13-1.65.32-3.91-.01-4.56l-.19-.37-.16-.38c-11.96-29.07-2.15-58.56,5.98-82.39.18-2.17-1.27-4.91-3.61-9.01-.63-1.1-1.25-2.2-1.83-3.29l-.15-.3c-2.05-4.18-2.36-8.21-2.6-11.44-.04-.58-.09-1.16-.14-1.74-.95-5.12-3.41-10.01-6.51-15.84-1.09-2.1-2.16-4.12-3.24-6.15C9.6,67.77,1.35,52.22.03,33.94l-.03-.37v-.37C.05,12.41,13.08,0,34.85,0c16.71,0,36.52,7.41,48.01,14.35,51.5,27.01,110.94,80.36,138.37,124.2l.16.25.14.26c16.82,30.83,21.05,52.71,13.32,68.89-8.8,18.39-30.81,24.79-49.34,28.23-12.58,5.16-23.77,13.44-35.59,22.19-14.01,10.36-28.49,21.08-46.18,26.98-4.1,1.33-8.38,2-12.79,2h0Zm-16.65-31.81c4.98,3.62,10.01,5.39,15.37,5.39,13.84,0,28.9-11.4,43.46-22.42,6.51-4.93,12.68-9.6,18.88-13.38,11.63-9.98,24.38-13.18,35.66-16.02,11.61-2.92,18.64-4.95,22.93-11.17,2.76-12.3-.91-27.16-10.95-44.39l-22.11-9.26c-4.03-1.69-8.76-3.89-13.78-6.23-19.4-9.04-45.97-21.42-68.03-21.42-17.65,0-28.87,8.11-35.32,25.51l-.16.43-.2.42c-5.96,12.42-12.33,31.39-8.88,51.22l.03.2c.29,1.91,1.1,4.16,1.95,6.55,1.88,5.26,4.22,11.81,2.74,19.44l-.06.29c-.15.64-.16,1.01-.16,1.18l.33.45.33.61c2.27,4.13,4.1,8.45,5.88,12.63,3.39,7.99,6.6,15.55,12.09,19.99Zm23.43-165.35c2.49,0,4.98.16,7.41.47l.15.02c12.28,1.78,39.14,9.09,59.89,19.75C130.92,76.67,72.27,27,39.53,27c-5.3,0-9.35,1.33-12.58,4.14-2.01,11.44,4.89,23.73,12.17,36.69,5.6,9.97,11.34,20.2,13.56,31.07,1.77-.35,3.57-.61,5.35-.88,4.88-.72,10.41-1.54,17.11-3.83,7.91-2.7,15.3-4.01,22.59-4.01Z"/>
  </g>
</svg>