<?xml version="1.0" encoding="UTF-8"?>
<svg id="Layer_2" data-name="Layer 2" xmlns="http://www.w3.org/2000/svg" viewBox="0 0 250.54 267.51">
  <defs>
    <style>
      .cls-1 {
        fill: #181818;
        stroke-width: 0px;
      }
    </style>
  </defs>
  <g id="Layer_2-2" data-name="Layer 2">
    <path class="cls-1" d="m250.24,156.39c-1.55-8.29-9.56-12.32-17.34-12.82-4.45-.28-8.73.66-13.08,1.44-2.11.38-4.33.63-6.43.06-1.51-.41-2.96-1.28-4.12-2.33-2.73-2.46-4.61-5.63-6.49-8.76-2.29-3.81-4.71-7.55-7.26-11.19-10.43-14.86-22.84-28.2-36.03-40.63-13.51-12.75-27.72-24.84-42.1-36.59-7.61-6.22-15.42-12.24-23.63-17.65-8.28-5.45-16.95-10.27-25.79-14.74C52.07,5.15,32.53-3.79,13.97,1.69,3.86,4.67-.46,13.77.04,23.34c.48,9.22,3.65,18.14,7.29,26.53,3.64,8.4,8.06,16.44,12.36,24.52,3.26,6.13,6.39,12.23,7.59,19.13,0,.02,0,.03,0,.04,0,.02,0,.03,0,.06.02.22.05.44.07.66.05.47.08.93.12,1.4.06.78.09,1.56.17,2.33.19,2.02.6,3.83,1.45,5.69,1.03,2.25,2.47,4.33,3.65,6.51.3.54.59,1.09.86,1.65.13.25.25.51.37.77.05.11.22.49.28.64.06.15.18.47.21.54.11.3.22.6.32.91.19.58.35,1.17.49,1.76.06.28.12.57.17.85.03.16.05.31.08.47.06.62.11,1.23.12,1.86.02.72,0,1.43-.06,2.15-.03.35-.06.71-.1,1.06,0,.03-.02.16-.03.25-.02.13-.04.26-.06.39-.51,2.89-1.34,5.7-2.36,8.45-2.5,5.78-4.62,11.75-6.11,17.84-1.94,7.92-2.72,16.1-2.56,24.24.09,4.47.25,9.05,1.15,13.44.82,4.03,2.15,7.94,3.47,11.83.28.83.56,1.67.84,2.5.26.78.55,1.72.59,2.22.13,1.86-.2,3.72-.44,5.56-.26,1.97-.39,3.9-.04,5.87.33,1.89,1.42,3.47,2.31,5.13,3.53,6.57,6.08,13.61,9.32,20.32,3.22,6.68,7.27,13.04,13.23,17.58,3.23,2.47,6.96,4.26,10.72,5.77,4.08,1.64,8.35,2.71,12.73,3.13,4.18.4,8.39-.04,12.37-1.38,4.16-1.4,8.18-3.24,12.09-5.23,7.96-4.05,15.53-8.85,22.84-13.97,8.01-5.61,15.75-11.59,23.8-17.14,7.34-5.06,14.78-10.43,23.41-12.99,8.02-2.39,16.47-3.32,24.27-6.43,4.14-1.64,7.97-3.79,11.32-6.75,2.43-2.14,4.43-4.77,6.18-7.48,3.44-5.31,5.9-11.19,9.47-16.42.22-.33.45-.65.69-.97.09-.12.17-.24.26-.36.03-.04.05-.07.07-.09.44-.57.91-1.11,1.4-1.64.48-.52.98-1.01,1.51-1.48.21-.18.42-.36.63-.53.06-.03.52-.38.62-.45.57-.39,1.17-.74,1.79-1.05.09-.04.48-.22.56-.26.36-.14.72-.27,1.09-.38,1.75-.53,3.53-.58,5.34-.7,4.28-.27,8.23-1.43,10.69-5.18,1.94-2.96,2.24-6.72,1.6-10.12ZM35.51,117.77c-.02-.16-.05-.52,0,0h0Zm209.02,42.58c0,.09-.02.19-.03.28-.01.08-.03.2-.04.24-.07.33-.15.66-.24.99-.22.74-.16.66-.69,1.49-.08.13-.17.26-.26.38-.03.03-.07.07-.12.13-.17.18-.35.35-.53.51,0-.02-.55.38-.66.43-.34.19-.69.32-1.07.43-1.99.55-4.06.43-6.1.65-3.28.35-6.42,1.36-9.11,3.3-2.57,1.86-4.62,4.16-6.45,6.74-3.59,5.07-6.03,10.83-9.3,16.1-1.67,2.69-3.04,4.62-5.39,6.79-2.67,2.47-5.93,4.36-9.31,5.68-7.62,2.99-15.85,3.95-23.68,6.23-8.73,2.55-16.17,7.55-23.62,12.6-15.24,10.34-29.42,22.15-45.72,30.89-6.79,3.64-14.22,7.55-22.12,7.25-7.58-.29-15.8-3.32-21.87-7.89-5.24-3.94-8.75-10.02-11.65-16.08-3.11-6.5-5.61-13.3-8.99-19.67-.43-.8-.87-1.6-1.32-2.38-.25-.44-.5-1.19-.53-1.52-.21-1.76.13-3.59.36-5.33.25-1.91.45-3.79.19-5.71-.24-1.8-.94-3.51-1.52-5.22-1.29-3.83-2.6-7.68-3.43-11.63-.79-3.79-.9-8.14-.98-12.25-.14-7.81.58-15.44,2.48-22.99,1.91-7.58,5.23-14.79,8.21-22.01,9.38-22.72,17.03-24.81,30.68-29.92,7.94-2.97,16.16-3.27,24.51-1.79,9.16,1.62,18.03,5.05,27,7.46,21.65,5.82,43.66,20.63,48.18,20.63s-15.35-13.22-23.48-17.08c-8.32-3.95-16.92-7.33-25.68-10.2-9.24-3.02-18.72-5.94-28.39-7.2-8.66-1.13-17.19.25-25.48,3.08-17.57,5.99-28.18,3.07-32.58,9.67-.24-.42-.48-.84-.72-1.25-.25-.43-.47-.87-.7-1.3-.02-.03-.03-.05-.04-.07-.06-.17-.13-.34-.19-.5-.23-.69-.3-1.4-.5-2.1.29,1.03,0-.07-.03-.44-.03-.38-.06-.76-.08-1.14-.06-.85-.11-1.71-.2-2.56-.69-6.5-3.18-12.52-6.14-18.29-7.89-15.42-17.73-30.69-20.65-48.05-.35-2.1-.63-4.27-.52-6.4.1-1.87.84-3.57,1.87-5.12,2.04-3.06,5.3-5.27,8.58-6.8,7.24-3.38,15.78-3.21,23.39-1.38,9.06,2.18,17.47,6.45,25.73,10.65,8.61,4.38,17.07,9.09,25.14,14.41,15.58,10.26,29.72,22.62,43.84,34.77,13.43,11.56,26.6,23.48,38.54,36.6,5.8,6.38,11.31,13.04,16.32,20.06,2.56,3.59,5,7.26,7.3,11.03,2.04,3.35,4.01,6.76,6.62,9.71,2.6,2.94,6.05,5.31,10,5.89,4.76.7,9.22-.87,13.9-1.43,3.73-.44,7.71-.41,11.22,1.05,1.4.58,2.77,1.45,3.83,2.56.14.15.27.3.4.45-.04-.05-.21-.28,0,0,.21.29.4.59.58.89.52.89.53.93.81,1.8.11.34.2.69.28,1.04.02.1.11.59.13.68.08.71.07,1.43.04,2.15Z"/>
  </g>
</svg>